<svg width="152" height="154" viewBox="0 0 152 154" fill="none" xmlns="http://www.w3.org/2000/svg">
<g style="mix-blend-mode:luminosity">
<path d="M39.3845 9.05859C46.5597 11.952 45.848 19.4709 47.5566 25.5844C48.6081 29.3465 51.2203 39.2109 56.6581 35.7979C60.2658 33.5336 54.538 23.4275 57.3343 22.2664C63.613 19.6592 61.0458 30.2107 63.3611 32.7193C66.2079 36.0728 68.9246 32.9641 71.5443 30.9813C75.6648 27.8627 77.5421 32.6109 81.4638 32.9672C88.0247 33.5631 86.3654 23.2752 90.1343 20.3414C91.8714 18.9664 93.5427 20.9897 94.4115 22.3061C94.4574 22.8717 94.4765 23.4393 94.4691 24.0068C94.4183 26.5746 93.1048 31.2559 91.2101 33.0625L91.2267 33.8693C92.2896 36.9937 94.7554 36.859 97.4706 37.6852C99.8322 38.4035 101.464 40.318 103.283 41.8697C106.034 41.1146 107.414 40.5328 109.677 38.715C113.991 35.2504 117.313 23.5072 124.411 26.6566C127.749 28.1375 126.86 31.9646 125.189 34.4977C121.375 40.2764 113.01 40.7096 110.734 47.6115C110.895 48.0109 111.298 48.9004 111.313 49.2867C112.502 50.7416 113.926 52.3471 114.99 53.8629C114.263 56.3104 113.959 57.1932 113.985 59.6971C115.532 61.1598 118.942 63.2223 118.876 65.152C118.812 66.9979 118.024 69.0398 117.836 70.9443C121.144 73.15 121.465 72.6061 124.832 73.4025C128.979 71.0227 135.442 75.1781 130.503 78.4391C128.267 79.9154 121.409 76.616 119.919 81.1541C118.94 84.1338 119.355 85.5424 116.436 87.8473C112.605 90.8719 114.834 93.1311 115.733 96.927C115.179 98.6211 114.94 99.5502 113.809 100.97C115.03 102.617 115.876 103.327 117.75 104.426C121.203 106.451 129.274 107.327 128.807 112.781C128.703 113.999 126.755 115.435 125.326 114.967C123.035 114.257 121.102 112.067 119.462 110.373C116.419 107.227 111.841 103.697 107.287 106.044C105.528 106.95 104.882 109.156 105.948 110.844C107.052 112.595 108.644 113.552 109.84 115.164C109.762 116.751 109.753 117.367 109.913 119.279C110.231 123.096 116.168 127.458 114.829 131.072C114.3 132.5 111.419 132.554 110.668 131.458C106.976 128.072 105.727 122.671 101.555 119.679C100.177 118.69 98.9505 118.023 97.2031 118.229C91.8589 118.857 94.6097 127.434 89.5453 128.396C88.8255 128.533 87.6038 128.366 87.0298 127.833C84.8226 125.658 86.2869 123.086 82.3564 123.279C78.5851 123.465 76.3671 127.298 73.5908 127.486C70.1128 127.722 66.1515 124.658 62.04 125.226L61.8933 125.291L61.1515 124.781C60.0578 125.963 59.2013 126.983 58.1904 128.239C58.2726 128.81 58.4267 129.107 58.0142 129.601C57.2146 132.196 55.8154 137.486 52.2831 137.046C44.3583 134.803 53.8333 128.388 52.9113 124.139C52.4058 121.808 48.5499 121.875 46.6792 120.79L46.6064 120.747C46.0986 119.794 45.6913 117.512 44.447 117.445C41.6033 117.242 40.5201 118.337 39.3425 115.193C37.6076 110.56 30.5234 119.888 28.7839 116.453C26.8279 112.59 33.0761 111.709 34.8564 109.719C35.3033 109.22 35.6173 108.373 35.8867 107.726C35.1607 106.89 34.4404 106.231 34.4259 105.154L34.0558 104.787C32.147 105.425 28.5033 104.863 25.5478 106.222C19.991 108.752 15.2619 114.07 8.9724 114.725C6.55873 114.976 5.77104 113.069 5.75033 111.026C5.68061 104.142 16.5206 103.732 21.0869 101.473C23.4029 100.326 24.9009 99.6016 26.6505 97.7104C28.5322 95.8213 30.0443 92.7826 27.9628 90.3146C25.2208 87.0639 15.2538 92.425 15.1171 87.1117C15.0783 85.6061 16.513 85.1398 17.7929 85.0416C22.4337 84.6856 25.3351 82.0898 25.415 77.2902C25.4333 76.2623 25.3205 74.9281 24.5523 74.1219C23.6361 73.4762 22.0953 71.527 22.1025 70.3969C22.1189 67.8063 25.5642 66.1266 27.2882 64.1805C24.8171 61.8723 21.4892 61.0996 18.1749 59.5074C15.5472 58.2451 13.4912 54.2732 17.1333 52.7021C18.8267 51.9717 22.8154 55.1309 24.5285 56.2246C27.58 58.173 30.3867 57.9834 33.9046 57.1234C37.5031 53.975 35.0177 51.7301 36.4341 48.3119C37.9693 44.6072 45.7699 46.85 47.4001 42.016C49.291 36.6887 44.9497 28.7096 41.8163 24.4363C39.073 20.6949 31.0988 12.1727 39.3845 9.05859Z" fill="#0D5521"/>
<path d="M39.3845 9.05859C46.5597 11.952 45.848 19.4709 47.5566 25.5844C48.6081 29.3465 51.2203 39.2109 56.6581 35.7979C60.2658 33.5336 54.538 23.4275 57.3343 22.2664C63.613 19.6592 61.0458 30.2107 63.3611 32.7193C66.2079 36.0728 68.9246 32.9641 71.5443 30.9813C75.6648 27.8627 77.5421 32.6109 81.4638 32.9672C88.0247 33.5631 86.3654 23.2752 90.1343 20.3414C91.8714 18.9664 93.5427 20.9897 94.4115 22.3061C94.4574 22.8717 94.4765 23.4393 94.4691 24.0068C94.4183 26.5746 93.1048 31.2559 91.2101 33.0625L91.2267 33.8693C92.2896 36.9937 94.7554 36.859 97.4706 37.6852C99.8322 38.4035 101.464 40.318 103.283 41.8697C106.034 41.1146 107.414 40.5328 109.677 38.715C113.991 35.2504 117.313 23.5072 124.411 26.6566C127.749 28.1375 126.86 31.9646 125.189 34.4977C121.375 40.2764 113.01 40.7096 110.734 47.6115C110.445 48.6896 108.88 49.717 107.925 50.2637C107.757 50.584 107.517 50.9943 107.421 51.333C106.451 52.049 102.869 53.7746 101.648 54.3844C99.638 55.4002 97.6624 56.4834 95.7249 57.6322C93.0044 59.2627 90.2941 60.9098 87.5939 62.5738C87.0781 62.8889 85.3812 64.0318 84.9474 64.1869C84.5609 63.8564 83.9779 63.8205 83.4589 63.6207C82.6093 62.444 82.0792 61.8068 81.6556 60.3992L82.1958 57.6863C79.3165 57.5924 77.1351 57.5279 74.3011 56.8271C71.7115 58.3484 70.0941 57.4346 67.7326 55.8361C67.6181 55.0682 67.5171 54.2982 67.4296 53.5266C65.5632 53.4584 57.7974 54.268 56.5726 55.4961C55.3808 56.691 51.1439 62.3766 50.8703 63.8439L50.8437 63.9822C50.5923 65.3367 50.6484 68.3727 50.6425 69.8621C54.8169 76.0229 56.2287 75.2535 62.9718 73.8772C64.7566 74.6336 66.5216 74.8512 66.2917 76.985L66.0494 77.2596C65.2388 78.0744 63.0839 79.5693 62.0128 80.4133C59.3658 82.5092 56.7515 84.6459 54.1708 86.823C53.4744 87.4096 47.0968 93.117 46.8011 93.2365C45.7826 94.3332 44.8244 95.2242 43.7251 96.2428C42.0872 97.8098 35.9556 104.236 34.4259 105.154L34.0558 104.787C32.147 105.425 28.5033 104.863 25.5478 106.222C19.991 108.752 15.2619 114.07 8.9724 114.725C6.55873 114.976 5.77104 113.069 5.75033 111.026C5.68061 104.142 16.5206 103.732 21.0869 101.473C23.4029 100.326 24.9009 99.6016 26.6505 97.7104C28.5322 95.8213 30.0443 92.7826 27.9628 90.3146C25.2208 87.0639 15.2538 92.425 15.1171 87.1117C15.0783 85.6061 16.513 85.1398 17.7929 85.0416C22.4337 84.6856 25.3351 82.0898 25.415 77.2902C25.4333 76.2623 25.3205 74.9281 24.5523 74.1219C23.6361 73.4762 22.0953 71.527 22.1025 70.3969C22.1189 67.8063 25.5642 66.1266 27.2882 64.1805C24.8171 61.8723 21.4892 61.0996 18.1749 59.5074C15.5472 58.2451 13.4912 54.2732 17.1333 52.7021C18.8267 51.9717 22.8154 55.1309 24.5285 56.2246C27.58 58.173 30.3867 57.9834 33.9046 57.1234C37.5031 53.975 35.0177 51.7301 36.4341 48.3119C37.9693 44.6072 45.7699 46.85 47.4001 42.016C49.291 36.6887 44.9497 28.7096 41.8163 24.4363C39.073 20.6949 31.0988 12.1727 39.3845 9.05859Z" fill="#FEC501"/>
<path d="M39.3807 9.05859C46.5559 11.952 45.8442 19.4709 47.5528 25.5844C48.6043 29.3465 51.2164 39.2109 56.6543 35.7979C60.2619 33.5336 54.5342 23.4275 57.3305 22.2664C63.6092 19.6592 61.042 30.2107 63.3573 32.7193C66.2041 36.0728 68.9207 32.9641 71.5405 30.9813C75.661 27.8627 77.5383 32.6109 81.46 32.9672C88.0209 33.5631 86.3616 23.2752 90.1305 20.3414C91.8676 18.9664 93.5389 20.9897 94.4076 22.3061C94.4535 22.8717 94.4727 23.4393 94.4653 24.0068C94.4145 26.5746 93.101 31.2559 91.2063 33.0625L91.2229 33.8693C91.092 33.8795 87.5342 35.7926 86.9354 36.0635C79.2233 39.5529 71.5793 43.133 64.1756 47.2336C63.4121 47.6566 61.8854 48.0396 61.0229 48.0998C58.5364 49.4754 55.7471 51.3117 53.3244 52.8496C43.2512 59.265 33.6362 66.3731 24.5485 74.1219C23.6323 73.4762 22.0914 71.527 22.0987 70.3969C22.1151 67.8063 25.5604 66.1266 27.2844 64.1805C24.8133 61.8723 21.4854 61.0996 18.1711 59.5074C15.5434 58.2451 13.4873 54.2732 17.1295 52.7021C18.8229 51.9717 22.8116 55.1309 24.5246 56.2246C27.5762 58.173 30.3828 57.9834 33.9008 57.1234C37.4992 53.975 35.0139 51.7301 36.4303 48.3119C37.9655 44.6072 45.766 46.85 47.3963 42.016C49.2871 36.6887 44.9459 28.7096 41.8125 24.4363C39.0692 20.6949 31.095 12.1727 39.3807 9.05859Z" fill="#C00100"/>
<path d="M61.0234 48.0998C61.6713 47.6891 62.3959 47.2814 63.0703 46.9105C71.3814 42.3387 79.7309 37.9088 88.5057 34.2826C89.4531 33.891 90.1932 33.3947 91.2068 33.0625L91.2234 33.8693C91.0926 33.8795 87.5348 35.7926 86.9359 36.0635C79.2238 39.5529 71.5799 43.133 64.1762 47.2336C63.4127 47.6566 61.8859 48.0396 61.0234 48.0998Z" fill="#F8CA39"/>
<path d="M83.4531 63.6188C85.0385 63.268 85.301 62.5863 86.3252 62.0801C89.2713 60.6238 101.624 51.9227 104.274 52.5869C104.943 50.9062 106.159 50.3896 107.919 50.2617C107.751 50.582 107.511 50.9924 107.415 51.331C106.446 52.0471 102.863 53.7727 101.643 54.3824C99.6322 55.3982 97.6566 56.4814 95.7191 57.6303C92.9986 59.2607 90.2883 60.9078 87.5881 62.5719C87.0723 62.8869 85.3754 64.0299 84.9416 64.185C84.5551 63.8545 83.9721 63.8186 83.4531 63.6188Z" fill="#F8CA39"/>
<path d="M46.7988 93.2348C46.3469 91.5621 61.7123 79.3668 63.8486 77.7904C64.1465 77.5707 65.5762 77.3311 66.0471 77.2578C65.2365 78.0727 63.0816 79.5676 62.0106 80.4115C59.3635 82.5074 56.7492 84.6441 54.1686 86.8213C53.4721 87.4078 47.0945 93.1152 46.7988 93.2348Z" fill="#F8CA39"/>
<path d="M34.0529 104.788L34.0391 104.535C36.0561 101.84 39.3061 98.5037 42.018 96.4977C42.6236 96.0496 43.0301 96.1801 43.7223 96.2434C42.0844 97.8103 35.9527 104.236 34.423 105.154L34.0529 104.788Z" fill="#F8CA39"/>
<path d="M124.831 73.4029C128.978 71.0231 135.441 75.1785 130.502 78.4395C128.266 79.9158 121.408 76.6164 119.918 81.1545C118.939 84.1342 119.354 85.5428 116.435 87.8477C112.604 90.8723 114.833 93.1315 115.732 96.9274C115.178 98.6215 114.939 99.5506 113.808 100.97C115.029 102.617 115.875 103.328 117.749 104.427C121.202 106.452 129.273 107.328 128.806 112.782C128.702 113.999 126.754 115.435 125.325 114.967C123.035 114.257 121.101 112.068 119.462 110.373C116.418 107.227 111.84 103.698 107.286 106.044C105.527 106.951 104.881 109.156 105.947 110.845C107.051 112.595 108.643 113.552 109.839 115.164C109.761 116.752 109.752 117.367 109.912 119.28C110.23 123.096 116.167 127.459 114.828 131.072C114.299 132.501 111.418 132.555 110.667 131.458C106.975 128.072 105.726 122.672 101.554 119.68C100.177 118.69 98.9496 118.023 97.2021 118.229C91.858 118.858 94.6088 127.434 89.5443 128.397C88.8246 128.534 87.6029 128.366 87.0289 127.833C84.8217 125.658 86.2859 123.087 82.3555 123.28C78.5842 123.465 76.3662 127.299 73.5898 127.487C70.1119 127.722 66.1506 124.658 62.0391 125.227L62.0535 124.879C62.8309 123.341 66.6318 119.825 68.0441 118.301C81.084 104.433 95.6887 92.1238 111.565 81.6211C115.373 79.1189 119.817 76.5139 123.76 74.1811C124.335 74.0469 124.455 73.8389 124.831 73.4029Z" fill="black"/>
<path d="M50.6422 69.863C50.648 68.3735 50.592 65.3376 50.8433 63.9831L50.8699 63.8448C51.1435 62.3774 55.3804 56.6919 56.5722 55.497C57.797 54.2688 65.5629 53.4593 67.4293 53.5274C67.5168 54.2991 67.6177 55.069 67.7322 55.837C70.0937 57.4354 71.7111 58.3493 74.3008 56.828C77.1347 57.5288 79.3162 57.5933 82.1955 57.6872L81.6552 60.4001C82.0789 61.8077 82.609 62.4448 83.4586 63.6216C83.9775 63.8214 84.5605 63.8573 84.947 64.1878C84.6439 64.4142 84.0429 64.7296 84.0656 65.1056C84.2144 67.5772 87.3259 69.4679 88.3687 71.4431C89.7482 71.2101 91.682 70.938 92.9777 70.5546C92.0576 72.5259 91.8023 73.1323 90.5943 74.7831C89.6953 76.0116 85.0849 80.07 85.1168 81.1532C85.1781 83.2399 86.1363 84.638 86.0709 87.4528C85.5281 87.8618 82.556 89.9278 82.2812 90.3005C83.2625 93.5827 82.7103 92.0497 81.4054 94.6436C79.0343 99.3573 77.4578 99.9604 72.4205 100.576C72.1914 99.1731 68.9111 89.9298 68.1209 88.5735C68.1582 88.3257 68.3539 87.1089 68.4566 86.9417C70.9554 82.8729 67.2365 81.0872 66.2914 76.9858C66.5213 74.852 64.7562 74.6345 62.9715 73.878C56.2283 75.2544 54.8166 76.0237 50.6422 69.863Z" fill="white"/>
<path d="M61.1484 124.782C61.5344 123.458 77.5807 107.358 79.8998 105.296C90.7512 95.6436 102.931 85.8182 115.412 78.3096C118.053 76.7205 120.801 74.1155 123.758 74.1809C119.814 76.5137 115.371 79.1188 111.563 81.6209C95.6865 92.1237 81.0818 104.432 68.042 118.3C66.6297 119.825 62.8287 123.341 62.0514 124.879L62.0369 125.227L61.8902 125.292L61.1484 124.782Z" fill="#ACCCB3"/>
<path d="M51.9453 136.434C54.332 134.894 56.8441 129.835 58.0147 129.602C57.215 132.196 55.8158 137.487 52.2836 137.047L51.9453 136.434Z" fill="black"/>
<path d="M51.9443 136.433C51.7818 136.158 51.8357 136.249 51.7891 135.911C52.7465 134.437 56.8592 129.068 58.1898 128.238C58.2721 128.81 58.4262 129.107 58.0137 129.601C56.8432 129.834 54.3311 134.893 51.9443 136.433Z" fill="#ACCCB3"/>
<path d="M110.727 47.6094C110.888 48.0088 111.291 48.8982 111.306 49.2846C110.054 49.9807 108.717 50.7592 107.414 51.3309C107.51 50.9922 107.75 50.5818 107.918 50.2615C108.873 49.7148 110.438 48.6875 110.727 47.6094Z" fill="#FFF6A5"/>
<path d="M91.4435 85.5C91.6697 85.6619 91.6849 85.7361 91.8463 85.9697C92.0338 88.0914 91.0326 93.7533 88.5656 94.3027C87.4806 92.7 88.1631 90.0399 88.1849 87.8291L90.2262 87.2211C90.6373 86.6512 91.0431 86.0775 91.4435 85.5Z" fill="white"/>
<path d="M126.096 118.34C126.179 118.367 126.263 118.395 126.346 118.422C130.182 120.658 137.949 122.257 136.303 128.217C136.164 128.718 135.264 129.024 134.854 129.185C131.505 129.185 130.286 125.365 128.086 123.403C126.93 122.371 125.385 121.339 124.109 120.395C124.798 119.471 125.133 118.988 126.096 118.34Z" fill="black"/>
<path d="M54.9117 139.941C55.0466 140.008 55.356 140.238 55.4956 140.336C56.4003 142.024 55.7757 143.716 55.9714 145.53C56.1607 147.286 56.8632 149.155 56.8242 150.933C56.7652 153.612 55.0706 153.791 52.8896 153.673L52.7165 153.579C47.7261 150.824 52.9835 143.416 54.9117 139.941Z" fill="black"/>
<path d="M7.79051 117.859C8.49539 117.803 8.72605 117.779 9.43836 117.866C12.1862 119.928 5.81726 125.497 2.91199 125.872C0.898708 125.141 -1.04406 123.455 0.642459 121.269C2.36609 119.035 5.14051 118.302 7.79051 117.859Z" fill="#FEC501"/>
<path d="M4.36679 55.5543C6.60605 55.2709 12.7334 55.9383 12.5994 59.45C12.5711 60.1959 11.1812 60.8863 10.5207 61.2605C4.83691 63.5121 -0.213094 57.9242 4.36679 55.5543Z" fill="#C00100"/>
<path d="M125.66 10.3767C130.089 10.0949 130.729 12.663 127.937 15.5417C126.56 16.9618 125.268 18.2288 123.941 19.707C122.795 20.8288 121.422 20.5286 120.914 19.1201C121.023 18.1376 123.939 12.63 124.602 11.4476C124.763 11.1617 125.372 10.6148 125.66 10.3767Z" fill="#C00100"/>
<path d="M109.565 135.52C112.934 135.493 116.572 140.266 114.352 143.205C111.779 143.495 111.54 142.348 111.321 140.139C109.563 138.725 108.341 137.884 109.565 135.52Z" fill="black"/>
<path d="M133.74 28.5586C134.898 28.5684 135.739 28.5283 136.119 29.7826C135.742 32.2055 132.014 34.0891 129.854 34.6937C128.974 34.4719 128.309 34.0676 127.516 33.64C129.691 32.0453 131.684 29.4205 133.74 28.5586Z" fill="#FEC501"/>
<path d="M88.6999 10.0107C93.654 9.60129 92.7274 13.4396 90.6266 16.3286C87.1991 17.5021 86.2481 12.1749 88.6999 10.0107Z" fill="#C00100"/>
<path d="M137.601 92.8043C140.294 92.7867 148.875 91.5824 147.089 96.4554C144.173 97.3972 142.133 94.3154 139.209 94.5635C138.723 94.6047 138.253 94.598 137.835 94.3367C137.479 93.9006 137.576 93.373 137.601 92.8043Z" fill="black"/>
<path d="M138.209 66.6836C139.277 67.1721 139.644 67.6465 140.346 68.5639C138.805 71.1897 137.925 71.7801 134.945 71.4039C133.874 71.0971 132.642 70.2285 131.672 69.6209C133.54 69.0244 135.372 67.6465 138.209 66.6836Z" fill="black"/>
<path d="M72.0606 132.156C73.7518 132.852 75.2328 137.597 74.5057 139.24C74.2332 139.855 73.616 140.05 73.0485 140.29C68.6727 139.245 70.8986 135.155 72.0606 132.156Z" fill="black"/>
<path d="M62.1018 15.0352C65.2313 15.1461 65.8891 18.8982 64.7908 21.2193C64.5523 21.7234 64.1139 22.3088 63.782 22.7602L63.4178 23.0188L63.1322 22.8133C62.2811 20.9906 61.2814 18.9436 61.1529 16.8867C61.0994 16.0293 61.5301 15.6482 62.1018 15.0352Z" fill="#C00100"/>
<path d="M120.611 46.5512C122.291 46.4415 123.346 48.428 122.719 49.8219C121.972 50.4188 120.416 50.6311 119.398 50.8567C115.229 52.2606 115.448 47.6842 120.611 46.5512Z" fill="#0D5521"/>
<path d="M30.1264 14.6484C32.1986 14.7996 34.3783 19.2061 33.8625 20.6504C33.2492 20.8816 33.2576 20.7275 32.4658 20.4557C30.2783 19.1887 29.3385 18.5307 27.5781 16.7449C28.4531 15.543 28.7443 15.1666 30.1264 14.6484Z" fill="#C00100"/>
<path d="M75.3184 0.0245189C75.8453 -0.0118093 76.4784 -0.0809486 76.7829 0.448153C77.7827 2.18468 77.2289 6.59678 75.5588 7.80714C74.0682 6.62432 72.2506 1.20792 75.3184 0.0245189Z" fill="#C00100"/>
<path d="M94.6484 31.5872C95.0654 28.7528 98.1693 27.0579 98.6813 29.9515C98.7916 31.497 99.2473 33.654 97.3846 34.22C96.0906 34.0151 95.1717 32.6857 94.6484 31.5872Z" fill="#F8CA39"/>
<path d="M94.6484 31.5872C95.0654 28.7528 98.1693 27.0579 98.6813 29.9515C97.5172 30.2669 95.7697 31.053 94.6484 31.5872Z" fill="#C00100"/>
<path d="M20.648 92.2369C21.259 92.1162 21.5807 92.1212 22.0058 92.5232C22.4713 94.8199 18.3553 95.7294 16.6103 96.1087C15.9402 95.9093 15.4783 95.6583 15.0305 95.1294C14.7244 93.2761 19.2402 92.5923 20.648 92.2369Z" fill="#F8CA39"/>
<path d="M149.326 63.1234C150.481 63.0822 151.323 63.5935 151.882 64.5894C152.038 66.5697 148.647 66.1457 147.426 66.0968C146.473 66.2068 146.027 66.4127 145.217 66.0697C144.787 64.6287 148.184 63.4349 149.326 63.1234Z" fill="black"/>
<path d="M17.1166 69.3477C18.4484 69.4898 20.9283 70.2207 20.1646 72.177C19.9207 72.8016 18.7613 73.0117 18.1248 73.19C16.2045 73.8191 16.1047 73.302 15.3125 71.6047C15.9244 70.683 16.393 70.1645 17.1166 69.3477Z" fill="#C00100"/>
<path d="M124.704 81.7108C126.282 81.6389 129.251 82.5895 128.244 84.5833C127.662 84.986 127.567 84.9907 126.87 85.0196C125.183 84.0745 123.481 83.1563 121.766 82.2651L124.704 81.7108Z" fill="black"/>
<path d="M47.4968 125.305C48.9646 126.366 48.1224 128.757 47.3364 130.026C46.7153 131.028 46.4216 131.054 45.3062 131.302C43.4777 129.86 46.4681 126.679 47.4968 125.305Z" fill="#0D5521"/>
<path d="M127.932 22.0664C130.921 23.2742 129.193 25.4648 127.583 26.8488C127.094 26.7211 126.507 26.6 126.166 26.2195C125.871 25.8977 125.732 25.4635 125.784 25.0305C125.94 23.7824 127.034 22.8098 127.932 22.0664Z" fill="#FEC501"/>
<path d="M94.0019 129.242C95.2028 129.388 95.9911 130.56 96.8153 131.481C96.1954 132.258 95.6968 132.691 94.9708 133.352L94.3499 133.47C92.0011 132.699 92.6372 130.655 94.0019 129.242Z" fill="black"/>
<path d="M118.097 98.648C119.938 98.5308 122.829 99.0533 121.767 101.55C119.106 102.551 117.96 101.279 118.097 98.648Z" fill="black"/>
<path d="M28.4951 120.022C29.234 119.933 29.5908 119.863 30.3311 119.978C30.8844 120.404 30.7318 120.172 30.9027 120.852C30.6451 122.021 29.8867 122.702 29.007 123.467C28.2676 123.816 28.0195 123.788 27.4205 123.311C26.7973 121.996 27.626 120.92 28.4951 120.022Z" fill="#0D5521"/>
<path d="M86.4553 139.031C88.838 139.221 89.6212 141.145 88.4128 143.004C85.769 142.974 85.4176 141.163 86.4553 139.031Z" fill="black"/>
<path d="M142.054 42.5816C143.107 42.5488 143.883 42.4677 144.112 43.6261C143.946 44.4179 143.353 44.9935 142.823 45.6158C142.051 45.8669 141.836 45.9591 141.196 45.6548C140.657 44.4906 141.175 43.4304 142.054 42.5816Z" fill="#0D5521"/>
<path d="M9.86474 89.1562C10.9874 89.0798 12.6698 88.707 13.2214 89.8228C13.2042 90.4459 12.9645 90.8076 12.6802 91.3527C11.4954 91.6556 10.5475 91.7894 9.74892 90.7384C9.61962 89.9867 9.6497 89.8847 9.86474 89.1562Z" fill="#FEC501"/>
<path d="M14.4872 117.252C16.9749 117.085 16.6882 119.155 14.6726 119.914C12.7238 120.051 12.564 117.879 14.4872 117.252Z" fill="#F8CA39"/>
<path d="M68.7076 22.3711C70.8467 22.55 69.9151 25.3656 69.3719 26.5293C67.4264 25.7098 67.5694 23.8285 68.7076 22.3711Z" fill="#C00100"/>
<path d="M4.31364 103.384C5.09469 103.256 5.27165 103.215 5.81696 103.588C6.15817 104.798 5.4234 105.337 4.37985 105.688C4.24977 105.672 4.11989 105.653 3.99059 105.632C3.05348 105.48 2.47184 105.257 2.63746 104.241C3.07399 103.659 3.6068 103.588 4.31364 103.384Z" fill="#F8CA39"/>
<path d="M52.5315 23.3867C53.0992 23.4605 53.1736 23.475 53.6662 23.7635C54.5133 24.9324 54.3326 25.932 53.5758 27.1021C53.3074 27.0473 53.0758 26.9545 52.8164 26.8648C51.9051 25.7424 51.9861 24.6643 52.5315 23.3867Z" fill="#C00100"/>
<path d="M29.2811 46.2926C31.6643 46.1614 31.8807 47.1703 31.4118 49.1498C31.3043 49.1338 31.1971 49.1166 31.0903 49.0983C29.302 48.7875 28.7827 48.0227 29.2811 46.2926Z" fill="#C00100"/>
<path d="M97.9279 15.1445C98.6957 15.299 99.4621 16.0572 99.6133 16.84C99.4182 17.5455 99.5215 17.3166 98.8353 17.8143C98.3012 17.8357 97.9646 17.8086 97.4426 17.7658C96.8727 17.3828 97.0227 17.5975 96.8516 16.9754C97.0072 16.1781 97.4139 15.7838 97.9279 15.1445Z" fill="#C00100"/>
<path d="M27.5702 39.2227C28.4221 39.2773 28.993 39.233 29.4887 39.9793C29.5596 40.6756 29.1206 41.3117 28.7797 41.9449C28.4407 42.0486 28.3456 41.9955 28.0057 41.9115C26.9403 41.0578 26.9944 40.3078 27.5702 39.2227Z" fill="#C00100"/>
<path d="M119.305 117.047C120.422 116.984 121.225 117.022 121.924 117.915C122.142 118.587 121.869 119.153 121.646 119.835C120.706 119.599 119.303 117.975 119.305 117.047Z" fill="black"/>
<path d="M34.8752 23.6367C36.4658 24.1275 36.7037 25.3295 35.9017 26.6254C35.4261 26.6732 35.3677 26.6592 34.8914 26.5816C33.8566 25.668 34.3623 24.7451 34.8752 23.6367Z" fill="#C00100"/>
<path d="M116.914 55.3359C118.983 55.5656 118.708 56.8789 117.631 58.1053C117.034 58.2676 116.869 58.1256 116.495 57.7525C116.33 57.0068 116.691 56.0943 116.914 55.3359Z" fill="#0E270E"/>
<path d="M136.893 73.2429C137.703 73.2339 138.698 73.3011 139.182 74.0589C139.276 74.7411 139.297 74.4923 138.855 75.1622C137.848 75.203 137.323 75.2743 136.59 74.6138C136.47 73.8468 136.518 74.054 136.893 73.2429Z" fill="black"/>
<path d="M12.623 73.8398C13.4071 73.8617 13.7833 73.7852 14.2646 74.4441C14.2853 75.0564 13.7534 75.7162 13.4015 76.2506C13.0698 76.2939 12.8569 76.2348 12.5312 76.1779C11.6831 75.2635 11.8829 74.708 12.623 73.8398Z" fill="#C00100"/>
<path d="M67.1097 130.617C67.8974 130.663 68.1197 130.607 68.6109 131.071C68.7218 131.688 68.5544 131.984 68.3353 132.56C67.557 132.605 67.5656 132.729 66.9933 132.403C66.7347 131.821 66.9587 131.276 67.1097 130.617Z" fill="black"/>
</g>
</svg>
