<svg xmlns="http://www.w3.org/2000/svg" viewBox="44 26 90 148" fill="none">
<path d="M97.2171 61.9855C101.164 51.6674 98.2664 42.4279 91.1208 34.3934C90.5439 33.7447 89.3958 32.6285 89.0335 31.9385C90.2976 29.7525 101.508 34.7639 103.241 35.884C114.328 43.049 119.473 51.4103 119.874 64.4385C119.807 68.2299 119.997 70.3447 119.22 74.0748C114.334 97.523 90.5558 108.91 79.8306 128.95C77.9234 132.514 75.8484 143.375 77.3669 147.419C77.8218 149.327 78.2197 151.271 79.0095 153.069C83.3376 162.925 94.0642 166.311 103.978 166.771C101.51 165.728 98.1781 163.802 96.132 161.933C93.4681 159.27 89.7874 153.611 88.8687 149.955C86.1679 139.209 91.7648 129.116 98.955 121.537C100.46 119.951 102.152 118.68 103.452 117.212L103.575 117.071C104.593 115.5 107.011 113.475 108.393 111.948C111.161 108.89 114.144 105.659 116.572 102.312C118.794 99.1057 120.029 97.8674 121.999 94.5C122.999 92.7903 123.994 85.6234 123.994 85.1234C126.167 86.6234 131.095 95.973 131.499 98.7734C133.019 109.323 132.162 114.907 126.038 123.696C119.347 133.3 107.798 142.842 109.951 155.687C110.761 160.517 113.29 162.992 117.112 165.666L119.553 167.353C116.705 167.981 115.995 167.985 113.108 168.053C110.044 167.856 107.193 167.597 104.138 167.307C101.119 168.911 97.0031 169.416 93.6261 169.5C86.9021 169.666 80.3156 169.094 74.2527 165.905C57.6021 157.147 48.9691 141.35 52.8103 122.565C55.956 107.181 64.4365 97.215 75.8968 87.0303C77.8726 85.2742 79.7601 83.0699 81.7513 81.2937C86.2251 77.5057 90.3333 73.2928 93.9232 68.6471C94.6005 67.7707 96.0367 64.8252 96.6072 63.6756C96.7878 63.3064 97.0691 62.4174 97.2171 61.9855Z" fill="white"/>
</svg>
