<svg xmlns="http://www.w3.org/2000/svg" viewBox="0 0 161 175" fill="none">
<path d="M160.229 75.4476L151.236 68.9968L112.983 79.6871L135.307 89.7045L135.423 112.162L151.506 120.949L160.413 111.441L160.229 75.4476Z" fill="white"/>
<path d="M139.915 133.014L138.127 122.121L103.468 102.779L112.152 125.573L96.2903 141.541L101.429 159.066L114.48 158.605L139.915 133.014Z" fill="white"/>
<path d="M84.6018 159.46L91.0837 150.51L80.3418 112.44L70.2761 134.657L47.7105 134.773L38.8813 150.779L48.435 159.643L84.6018 159.46Z" fill="white"/>
<path d="M26.758 139.243L37.7027 137.465L57.1385 102.971L34.2348 111.614L18.1897 95.8284L0.57959 100.943L1.04327 113.931L26.758 139.243Z" fill="white"/>
<path d="M0.183539 84.1957L9.17694 90.6464L47.4303 79.9561L25.1062 69.9387L24.9903 47.4814L8.90646 38.6946L0 48.2024L0.183539 84.1957Z" fill="white"/>
<path d="M20.4983 26.6297L22.2854 37.5219L56.9452 56.8645L48.261 34.0707L64.1226 18.1025L58.9835 0.576904L45.9329 1.03836L20.4983 26.6297Z" fill="white"/>
<path d="M75.8112 0.182658L69.3293 9.13291L80.0712 47.2027L90.1369 24.9857L112.702 24.8704L121.532 8.86373L111.978 0L75.8112 0.182658Z" fill="white"/>
<path d="M133.655 20.4097L122.71 22.1786L103.274 56.6721L126.178 48.0295L142.223 63.815L159.833 58.7006L159.37 45.7126L133.655 20.4097Z" fill="white"/>
</svg>
