<svg xmlns="http://www.w3.org/2000/svg" width="1102" height="186" viewBox="0 0 1102 186" fill="none">
<g clip-path="url(#clip0_12_11555)">
<path d="M33.01 0.168213H0C0 100.971 103.765 70.2902 103.765 146.448H136.775C136.784 45.6459 33.01 76.3264 33.01 0.168213ZM68.893 0.168213H102.18C105.429 20.4854 118.703 37.5262 136.792 46.0911V81.1164C100.328 70.5483 72.867 38.7727 68.893 0.168213ZM0 100.525C18.0892 109.09 31.363 126.131 34.612 146.448H67.8995C63.9077 107.844 36.456 76.0595 0 65.4914V100.517V100.525Z" fill="white"/>
</g>
<path d="M256.077 144H191.077V134.732H181.81V125.465H172.542V106.866H191.077V116.197H200.345V125.465H246.81V116.197H256.077V97.5986H246.81V88.3311H200.345V79H181.81V69.7324H172.542V32.5986H181.81V23.3311H191.077V14H256.077V23.3311H265.345V32.5986H274.676V51.1973H256.077V41.8662H246.81V32.5986H200.345V41.8662H191.077V60.4648H200.345V69.7324H246.81V79H265.345V88.3311H274.676V125.465H265.345V134.732H256.077V144ZM385.95 144H293.147V14H385.95V32.5986H311.683V65.0986H376.683V83.6973H311.683V125.465H385.95V144ZM423.147 144H404.612V116.197H413.88V88.3311H423.147V60.4648H432.415V32.5986H441.746V14H469.612V32.5986H478.88V60.4648H488.147V88.3311H497.415V116.197H506.746V144H488.147V116.197H423.147V144ZM432.415 97.5986H478.88V88.3311H469.612V60.4648H460.281V41.8662H451.014V60.4648H441.746V88.3311H432.415V97.5986ZM543.753 144H525.218V14H553.021V32.5986H562.352V60.4648H571.619V88.3311H580.887V116.197H590.218V88.3311H599.485V60.4648H608.753V32.5986H618.021V14H645.887V144H627.352V60.4648H618.021V88.3311H608.753V116.197H599.485V144H571.619V116.197H562.352V88.3311H553.021V60.4648H543.753V144ZM747.894 144H664.358V14H682.894V125.465H747.894V144ZM854.661 144H761.858V14H854.661V32.5986H780.394V65.0986H845.394V83.6973H780.394V125.465H854.661V144ZM952.288 144H887.288V134.732H878.021V125.465H868.753V106.866H887.288V116.197H896.556V125.465H943.021V116.197H952.288V97.5986H943.021V88.3311H896.556V79H878.021V69.7324H868.753V32.5986H878.021V23.3311H887.288V14H952.288V23.3311H961.556V32.5986H970.887V51.1973H952.288V41.8662H943.021V32.5986H896.556V41.8662H887.288V60.4648H896.556V69.7324H943.021V79H961.556V88.3311H970.887V125.465H961.556V134.732H952.288V144ZM1072.89 144H1007.89V134.732H998.626V125.465H989.358V106.866H1007.89V116.197H1017.16V125.465H1063.63V116.197H1072.89V97.5986H1063.63V88.3311H1017.16V79H998.626V69.7324H989.358V32.5986H998.626V23.3311H1007.89V14H1072.89V23.3311H1082.16V32.5986H1091.49V51.1973H1072.89V41.8662H1063.63V32.5986H1017.16V41.8662H1007.89V60.4648H1017.16V69.7324H1063.63V79H1082.16V88.3311H1091.49V125.465H1082.16V134.732H1072.89V144Z" fill="white"/>
<defs>
<clipPath id="clip0_12_11555">
<rect width="136.275" height="146.448" fill="white"/>
</clipPath>
</defs>
</svg>