<svg xmlns="http://www.w3.org/2000/svg" width="991" height="200" viewBox="0 0 991 200" fill="none">
<path d="M97.2171 61.9855C101.164 51.6674 98.2664 42.4279 91.1208 34.3934C90.5439 33.7447 89.3958 32.6285 89.0335 31.9385C90.2976 29.7525 101.508 34.7639 103.241 35.884C114.328 43.049 119.473 51.4103 119.874 64.4385C119.807 68.2299 119.997 70.3447 119.22 74.0748C114.334 97.523 90.5558 108.91 79.8306 128.95C77.9234 132.514 75.8484 143.375 77.3669 147.419C77.8218 149.327 78.2197 151.271 79.0095 153.069C83.3376 162.925 94.0642 166.311 103.978 166.771C101.51 165.728 98.1781 163.802 96.132 161.933C93.4681 159.27 89.7874 153.611 88.8687 149.955C86.1679 139.209 91.7648 129.116 98.955 121.537C100.46 119.951 102.152 118.68 103.452 117.212L103.575 117.071C104.593 115.5 107.011 113.475 108.393 111.948C111.161 108.89 114.144 105.659 116.572 102.312C118.794 99.1057 120.029 97.8674 121.999 94.5C122.999 92.7903 123.994 85.6234 123.994 85.1234C126.167 86.6234 131.095 95.973 131.499 98.7734C133.019 109.323 132.162 114.907 126.038 123.696C119.347 133.3 107.798 142.842 109.951 155.687C110.761 160.517 113.29 162.992 117.112 165.666L119.553 167.353C116.705 167.981 115.995 167.985 113.108 168.053C110.044 167.856 107.193 167.597 104.138 167.307C101.119 168.911 97.0031 169.416 93.6261 169.5C86.9021 169.666 80.3156 169.094 74.2527 165.905C57.6021 157.147 48.9691 141.35 52.8103 122.565C55.956 107.181 64.4365 97.215 75.8968 87.0303C77.8726 85.2742 79.7601 83.0699 81.7513 81.2937C86.2251 77.5057 90.3333 73.2928 93.9232 68.6471C94.6005 67.7707 96.0367 64.8252 96.6072 63.6756C96.7878 63.3064 97.0691 62.4174 97.2171 61.9855Z" fill="#FEFEFD"/>
<path d="M221.3 177V17H242.9V157.8H278.6V177H221.3ZM307.341 178.4C299.674 178.4 294.007 176.4 290.341 172.4C286.741 168.333 284.574 161.767 283.841 152.7C283.774 151.233 283.707 149.633 283.641 147.9C283.641 146.167 283.674 144.6 283.741 143.2C284.141 138.133 285.174 133.7 286.841 129.9C288.574 126.1 291.241 122.7 294.841 119.7C298.441 116.7 303.274 113.833 309.341 111.1C312.541 109.633 315.741 108.3 318.941 107.1C322.207 105.833 325.507 104.667 328.841 103.6V83.1C328.841 79.3 328.107 76.4667 326.641 74.6C325.174 72.7333 322.374 71.8 318.241 71.8C314.707 71.8 312.141 72.6 310.541 74.2C309.007 75.7333 308.141 78.4667 307.941 82.4C307.874 83.6667 307.807 85.4333 307.741 87.7C307.741 89.9667 307.741 92.3 307.741 94.7C307.807 97.0333 307.874 98.9667 307.941 100.5H286.941C286.874 98.8333 286.807 96.4 286.741 93.2C286.674 90 286.674 87.1667 286.741 84.7C287.007 77.8333 288.207 72.2333 290.341 67.9C292.474 63.5667 295.841 60.4 300.441 58.4C305.041 56.3333 311.174 55.3 318.841 55.3C326.841 55.3 333.107 56.4333 337.641 58.7C342.241 60.9 345.507 64.4 347.441 69.2C349.374 74 350.341 80.2667 350.341 88L350.241 177H328.641V165.1H325.641C323.707 169.567 321.374 172.9 318.641 175.1C315.974 177.3 312.207 178.4 307.341 178.4ZM315.841 162.6C318.841 162.6 321.407 161.733 323.541 160C325.741 158.267 327.474 155.867 328.741 152.8V118.6C326.407 119.333 324.074 120.2 321.741 121.2C319.407 122.133 317.041 123.4 314.641 125C310.974 127.2 308.507 129.833 307.241 132.9C306.041 135.9 305.341 139.333 305.141 143.2C305.074 144.467 305.041 145.767 305.041 147.1C305.041 148.433 305.074 149.767 305.141 151.1C305.474 154.833 306.541 157.7 308.341 159.7C310.207 161.633 312.707 162.6 315.841 162.6ZM374.467 177L358.167 57H380.167L386.767 117.4L389.667 160.8H395.867L398.867 117.4L405.767 57H427.767L411.067 177H374.467ZM455.2 178.4C447.533 178.4 441.867 176.4 438.2 172.4C434.6 168.333 432.433 161.767 431.7 152.7C431.633 151.233 431.567 149.633 431.5 147.9C431.5 146.167 431.533 144.6 431.6 143.2C432 138.133 433.033 133.7 434.7 129.9C436.433 126.1 439.1 122.7 442.7 119.7C446.3 116.7 451.133 113.833 457.2 111.1C460.4 109.633 463.6 108.3 466.8 107.1C470.067 105.833 473.367 104.667 476.7 103.6V83.1C476.7 79.3 475.967 76.4667 474.5 74.6C473.033 72.7333 470.233 71.8 466.1 71.8C462.567 71.8 460 72.6 458.4 74.2C456.867 75.7333 456 78.4667 455.8 82.4C455.733 83.6667 455.667 85.4333 455.6 87.7C455.6 89.9667 455.6 92.3 455.6 94.7C455.667 97.0333 455.733 98.9667 455.8 100.5H434.8C434.733 98.8333 434.667 96.4 434.6 93.2C434.533 90 434.533 87.1667 434.6 84.7C434.867 77.8333 436.067 72.2333 438.2 67.9C440.333 63.5667 443.7 60.4 448.3 58.4C452.9 56.3333 459.033 55.3 466.7 55.3C474.7 55.3 480.967 56.4333 485.5 58.7C490.1 60.9 493.367 64.4 495.3 69.2C497.233 74 498.2 80.2667 498.2 88L498.1 177H476.5V165.1H473.5C471.567 169.567 469.233 172.9 466.5 175.1C463.833 177.3 460.067 178.4 455.2 178.4ZM463.7 162.6C466.7 162.6 469.267 161.733 471.4 160C473.6 158.267 475.333 155.867 476.6 152.8V118.6C474.267 119.333 471.933 120.2 469.6 121.2C467.267 122.133 464.9 123.4 462.5 125C458.833 127.2 456.367 129.833 455.1 132.9C453.9 135.9 453.2 139.333 453 143.2C452.933 144.467 452.9 145.767 452.9 147.1C452.9 148.433 452.933 149.767 453 151.1C453.333 154.833 454.4 157.7 456.2 159.7C458.067 161.633 460.567 162.6 463.7 162.6ZM583 178.7C571.067 178.7 562.533 176.133 557.4 171C552.267 165.8 549.467 157.267 549 145.4C548.933 142.267 548.867 139.233 548.8 136.3C548.8 133.3 548.833 130.3 548.9 127.3C549.033 124.3 549.233 121.233 549.5 118.1H569.9C569.633 123.433 569.467 128.767 569.4 134.1C569.4 139.433 569.567 144.467 569.9 149.2C570.167 153.133 571.333 156.067 573.4 158C575.467 159.867 578.633 160.8 582.9 160.8C587.1 160.8 590.133 159.867 592 158C593.867 156.067 595 153.133 595.4 149.2C595.6 146.2 595.733 143.4 595.8 140.8C595.867 138.2 595.867 135.567 595.8 132.9C595.733 130.233 595.6 127.3 595.4 124.1C595.133 120.167 594.333 116.8 593 114C591.667 111.2 589.233 109.333 585.7 108.4L572.3 105C566.3 103.467 561.6 101.233 558.2 98.3C554.8 95.3 552.367 91.5 550.9 86.9C549.433 82.3 548.6 76.8 548.4 70.4C548.333 66.8 548.3 63.1333 548.3 59.4C548.367 55.6667 548.433 51.9667 548.5 48.3C548.767 40.4333 550.033 34.1 552.3 29.3C554.633 24.4333 558.267 20.9 563.2 18.7C568.2 16.4333 574.767 15.3 582.9 15.3C594.433 15.3 602.767 17.8667 607.9 23C613.1 28.1333 615.933 36.6 616.4 48.4C616.533 51.6667 616.567 55.7 616.5 60.5C616.433 65.2333 616.3 69.9667 616.1 74.7H595.3C595.5 69.7 595.6 64.7 595.6 59.7C595.667 54.6333 595.6 49.6 595.4 44.6C595.333 40.7333 594.233 37.8667 592.1 36C589.967 34.0667 586.867 33.1 582.8 33.1C578.533 33.1 575.433 34.0667 573.5 36C571.567 37.8667 570.433 40.7333 570.1 44.6C569.767 48.8667 569.6 53.1667 569.6 57.5C569.667 61.8333 569.833 66.1333 570.1 70.4C570.367 74.6667 571.2 78.1 572.6 80.7C574 83.3 576.533 85.0667 580.2 86L592.3 88.9C598.633 90.3667 603.567 92.6667 607.1 95.8C610.633 98.8667 613.133 102.767 614.6 107.5C616.067 112.167 616.9 117.7 617.1 124.1C617.233 126.9 617.3 129.433 617.3 131.7C617.3 133.967 617.267 136.2 617.2 138.4C617.133 140.533 617.067 142.867 617 145.4C616.533 157.267 613.7 165.8 608.5 171C603.367 176.133 594.867 178.7 583 178.7ZM661.245 178.7C653.245 178.7 646.845 177.6 642.045 175.4C637.312 173.2 633.845 169.667 631.645 164.8C629.445 159.933 628.112 153.533 627.645 145.6C627.512 141.8 627.379 137.433 627.245 132.5C627.179 127.567 627.145 122.467 627.145 117.2C627.145 111.933 627.179 106.8 627.245 101.8C627.379 96.8 627.512 92.3 627.645 88.3C628.112 80.4333 629.445 74.1 631.645 69.3C633.845 64.4333 637.312 60.9 642.045 58.7C646.845 56.4333 653.245 55.3 661.245 55.3C669.379 55.3 675.779 56.4333 680.445 58.7C685.179 60.9 688.645 64.4333 690.845 69.3C693.045 74.1 694.345 80.4333 694.745 88.3C694.879 92.1667 694.979 96.5667 695.045 101.5C695.112 106.367 695.145 111.467 695.145 116.8C695.145 122.067 695.112 127.2 695.045 132.2C694.979 137.133 694.879 141.6 694.745 145.6C694.345 153.467 693.045 159.833 690.845 164.7C688.645 169.567 685.179 173.133 680.445 175.4C675.779 177.6 669.379 178.7 661.245 178.7ZM661.245 162.2C665.445 162.2 668.445 161.3 670.245 159.5C672.045 157.7 672.979 154.8 673.045 150.8C673.245 144.933 673.379 139.2 673.445 133.6C673.579 128 673.645 122.433 673.645 116.9C673.645 111.367 673.579 105.833 673.445 100.3C673.379 94.7 673.245 88.9667 673.045 83.1C672.979 79.1667 672.045 76.3 670.245 74.5C668.512 72.7 665.512 71.8 661.245 71.8C657.112 71.8 654.112 72.7 652.245 74.5C650.379 76.3 649.379 79.1667 649.245 83.1C649.112 88.9667 648.979 94.7 648.845 100.3C648.779 105.9 648.745 111.467 648.745 117C648.745 122.533 648.779 128.1 648.845 133.7C648.979 139.3 649.112 145 649.245 150.8C649.379 154.8 650.379 157.7 652.245 159.5C654.112 161.3 657.112 162.2 661.245 162.2ZM731.139 178.7C723.872 178.7 718.172 176.467 714.039 172C709.906 167.533 707.839 160.167 707.839 149.9V57H729.439V151.7C729.439 155.5 730.206 158.267 731.739 160C733.339 161.733 735.806 162.6 739.139 162.6C742.272 162.6 745.306 161.7 748.239 159.9C751.239 158.033 753.339 155.467 754.539 152.2V57H776.139V177H754.539V165.2H751.339C748.806 169.867 745.906 173.3 742.639 175.5C739.439 177.633 735.606 178.7 731.139 178.7ZM791.358 177V57H812.958V70.2H816.958C817.824 65.0667 819.558 61.5 822.158 59.5C824.824 57.5 828.324 56.5 832.658 56.5C834.058 56.5 835.424 56.5333 836.758 56.6C838.158 56.6667 839.258 56.7333 840.058 56.8V73.6H832.858C826.258 73.6 821.491 74.7 818.558 76.9C815.691 79.1 813.824 82.3667 812.958 86.7V177H791.358ZM886.494 100.5C886.56 98.8333 886.594 96.8333 886.594 94.5C886.66 92.1667 886.66 89.9 886.594 87.7C886.594 85.5 886.594 83.7333 886.594 82.4C886.46 78.4667 885.527 75.7333 883.794 74.2C882.127 72.6 879.36 71.8 875.494 71.8C871.627 71.8 868.827 72.6 867.094 74.2C865.427 75.7333 864.527 78.4667 864.394 82.4C864.26 88.3333 864.16 94.1667 864.094 99.9C864.027 105.567 863.994 111.2 863.994 116.8C863.994 122.4 864.027 128.033 864.094 133.7C864.16 139.3 864.26 145.033 864.394 150.9C864.527 155.1 865.46 158.033 867.194 159.7C868.927 161.367 871.794 162.2 875.794 162.2C879.527 162.2 882.227 161.367 883.894 159.7C885.56 158.033 886.46 155.1 886.594 150.9C886.66 148.833 886.694 146.3 886.694 143.3C886.694 140.233 886.627 136.833 886.494 133.1H907.594C907.727 134.967 907.827 137.433 907.894 140.5C907.96 143.567 907.927 146.3 907.794 148.7C907.327 159.367 904.627 167.033 899.694 171.7C894.76 176.367 886.794 178.7 875.794 178.7C864.527 178.7 856.327 176.367 851.194 171.7C846.06 167.033 843.227 159.367 842.694 148.7C842.56 144.9 842.46 140.267 842.394 134.8C842.327 129.267 842.294 123.5 842.294 117.5C842.294 111.433 842.327 105.6 842.394 100C842.46 94.4 842.56 89.6 842.694 85.6C843.427 74.7333 846.294 66.9667 851.294 62.3C856.36 57.6333 864.427 55.3 875.494 55.3C886.627 55.3 894.694 57.6 899.694 62.2C904.694 66.7333 907.394 74.2667 907.794 84.8C907.86 87.2 907.86 89.9667 907.794 93.1C907.794 96.1667 907.727 98.6333 907.594 100.5H886.494ZM951.777 178.7C940.443 178.7 932.21 176.367 927.077 171.7C922.01 167.033 919.177 159.367 918.577 148.7C918.443 144.9 918.343 140.267 918.277 134.8C918.21 129.267 918.177 123.5 918.177 117.5C918.177 111.433 918.21 105.6 918.277 100C918.343 94.4 918.443 89.6 918.577 85.6C919.31 74.7333 922.21 66.9667 927.277 62.3C932.343 57.6333 940.443 55.3 951.577 55.3C962.51 55.3 970.443 57.6 975.377 62.2C980.377 66.7333 983.143 74.2333 983.677 84.7C983.743 86.5 983.777 89.3333 983.777 93.2C983.843 97 983.843 101.367 983.777 106.3C983.777 111.167 983.677 116.033 983.477 120.9H939.877C939.877 125.767 939.91 130.7 939.977 135.7C940.11 140.633 940.21 145.7 940.277 150.9C940.41 155.1 941.343 158.033 943.077 159.7C944.877 161.367 947.743 162.2 951.677 162.2C955.41 162.2 958.077 161.367 959.677 159.7C961.277 158.033 962.177 155.1 962.377 150.9C962.51 148.9 962.577 146.367 962.577 143.3C962.577 140.233 962.51 136.833 962.377 133.1H983.477C983.61 134.9 983.71 137.367 983.777 140.5C983.843 143.567 983.81 146.3 983.677 148.7C983.143 159.367 980.443 167.033 975.577 171.7C970.777 176.367 962.843 178.7 951.777 178.7ZM939.877 105.4H962.577C962.643 102.133 962.677 98.9333 962.677 95.8C962.677 92.6667 962.643 89.9333 962.577 87.6C962.51 85.2 962.443 83.4667 962.377 82.4C962.177 78.6 961.243 75.9 959.577 74.3C957.977 72.6333 955.31 71.8 951.577 71.8C947.643 71.8 944.81 72.6333 943.077 74.3C941.343 75.9 940.41 78.6 940.277 82.4C940.21 86.4667 940.143 90.4 940.077 94.2C940.01 98 939.943 101.733 939.877 105.4Z" fill="white"/>
</svg>