<svg xmlns="http://www.w3.org/2000/svg" width="1265" height="186" viewBox="0 0 1265 186" fill="none">
<svg x="4" y="21" width="153" height="144" viewBox="0 0 152 154" fill="none" xmlns="http://www.w3.org/2000/svg">
<path d="M39.3845 9.05859C46.5597 11.952 45.848 19.4709 47.5566 25.5844C48.6081 29.3465 51.2203 39.2109 56.6581 35.7979C60.2658 33.5336 54.538 23.4275 57.3343 22.2664C63.613 19.6592 61.0458 30.2107 63.3611 32.7193C66.2079 36.0728 68.9246 32.9641 71.5443 30.9813C75.6648 27.8627 77.5421 32.6109 81.4638 32.9672C88.0247 33.5631 86.3654 23.2752 90.1343 20.3414C91.8714 18.9664 93.5427 20.9897 94.4115 22.3061C94.4574 22.8717 94.4765 23.4393 94.4691 24.0068C94.4183 26.5746 93.1048 31.2559 91.2101 33.0625L91.2267 33.8693C92.2896 36.9937 94.7554 36.859 97.4706 37.6852C99.8322 38.4035 101.464 40.318 103.283 41.8697C106.034 41.1146 107.414 40.5328 109.677 38.715C113.991 35.2504 117.313 23.5072 124.411 26.6566C127.749 28.1375 126.86 31.9646 125.189 34.4977C121.375 40.2764 113.01 40.7096 110.734 47.6115C110.895 48.0109 111.298 48.9004 111.313 49.2867C112.502 50.7416 113.926 52.3471 114.99 53.8629C114.263 56.3104 113.959 57.1932 113.985 59.6971C115.532 61.1598 118.942 63.2223 118.876 65.152C118.812 66.9979 118.024 69.0398 117.836 70.9443C121.144 73.15 121.465 72.6061 124.832 73.4025C128.979 71.0227 135.442 75.1781 130.503 78.4391C128.267 79.9154 121.409 76.616 119.919 81.1541C118.94 84.1338 119.355 85.5424 116.436 87.8473C112.605 90.8719 114.834 93.1311 115.733 96.927C115.179 98.6211 114.94 99.5502 113.809 100.97C115.03 102.617 115.876 103.327 117.75 104.426C121.203 106.451 129.274 107.327 128.807 112.781C128.703 113.999 126.755 115.435 125.326 114.967C123.035 114.257 121.102 112.067 119.462 110.373C116.419 107.227 111.841 103.697 107.287 106.044C105.528 106.95 104.882 109.156 105.948 110.844C107.052 112.595 108.644 113.552 109.84 115.164C109.762 116.751 109.753 117.367 109.913 119.279C110.231 123.096 116.168 127.458 114.829 131.072C114.3 132.5 111.419 132.554 110.668 131.458C106.976 128.072 105.727 122.671 101.555 119.679C100.177 118.69 98.9505 118.023 97.2031 118.229C91.8589 118.857 94.6097 127.434 89.5453 128.396C88.8255 128.533 87.6038 128.366 87.0298 127.833C84.8226 125.658 86.2869 123.086 82.3564 123.279C78.5851 123.465 76.3671 127.298 73.5908 127.486C70.1128 127.722 66.1515 124.658 62.04 125.226L61.8933 125.291L61.1515 124.781C60.0578 125.963 59.2013 126.983 58.1904 128.239C58.2726 128.81 58.4267 129.107 58.0142 129.601C57.2146 132.196 55.8154 137.486 52.2831 137.046C44.3583 134.803 53.8333 128.388 52.9113 124.139C52.4058 121.808 48.5499 121.875 46.6792 120.79L46.6064 120.747C46.0986 119.794 45.6913 117.512 44.447 117.445C41.6033 117.242 40.5201 118.337 39.3425 115.193C37.6076 110.56 30.5234 119.888 28.7839 116.453C26.8279 112.59 33.0761 111.709 34.8564 109.719C35.3033 109.22 35.6173 108.373 35.8867 107.726C35.1607 106.89 34.4404 106.231 34.4259 105.154L34.0558 104.787C32.147 105.425 28.5033 104.863 25.5478 106.222C19.991 108.752 15.2619 114.07 8.9724 114.725C6.55873 114.976 5.77104 113.069 5.75033 111.026C5.68061 104.142 16.5206 103.732 21.0869 101.473C23.4029 100.326 24.9009 99.6016 26.6505 97.7104C28.5322 95.8213 30.0443 92.7826 27.9628 90.3146C25.2208 87.0639 15.2538 92.425 15.1171 87.1117C15.0783 85.6061 16.513 85.1398 17.7929 85.0416C22.4337 84.6856 25.3351 82.0898 25.415 77.2902C25.4333 76.2623 25.3205 74.9281 24.5523 74.1219C23.6361 73.4762 22.0953 71.527 22.1025 70.3969C22.1189 67.8063 25.5642 66.1266 27.2882 64.1805C24.8171 61.8723 21.4892 61.0996 18.1749 59.5074C15.5472 58.2451 13.4912 54.2732 17.1333 52.7021C18.8267 51.9717 22.8154 55.1309 24.5285 56.2246C27.58 58.173 30.3867 57.9834 33.9046 57.1234C37.5031 53.975 35.0177 51.7301 36.4341 48.3119C37.9693 44.6072 45.7699 46.85 47.4001 42.016C49.291 36.6887 44.9497 28.7096 41.8163 24.4363C39.073 20.6949 31.0988 12.1727 39.3845 9.05859Z" fill="white"/>
</svg>
<path d="M215.731 144H197.196V116.197H206.464V88.3311H215.731V60.4648H224.999V32.5986H234.33V14H262.196V32.5986H271.464V60.4648H280.731V88.3311H289.999V116.197H299.33V144H280.731V116.197H215.731V144ZM224.999 97.5986H271.464V88.3311H262.196V60.4648H252.865V41.8662H243.598V60.4648H234.33V88.3311H224.999V97.5986ZM336.337 144H317.802V14H410.604V32.5986H336.337V69.7324H401.337V88.3311H336.337V144ZM447.802 144H429.267V14H512.802V23.3311H522.069V32.5986H531.4V74.3662H522.069V83.6973H512.802V92.9648H522.069V102.232H531.4V144H512.802V111.5H503.534V102.232H494.267V92.9648H447.802V144ZM447.802 74.3662H503.534V65.0986H512.802V41.8662H503.534V32.5986H447.802V74.3662ZM568.407 144H549.872V14H568.407V144ZM670.478 144H605.478V134.732H596.21V125.465H586.942V106.866H605.478V116.197H614.745V125.465H661.21V116.197H670.478V97.5986H661.21V88.3311H614.745V79H596.21V69.7324H586.942V32.5986H596.21V23.3311H605.478V14H670.478V23.3311H679.745V32.5986H689.076V51.1973H670.478V41.8662H661.21V32.5986H614.745V41.8662H605.478V60.4648H614.745V69.7324H661.21V79H679.745V88.3311H689.076V125.465H679.745V134.732H670.478V144ZM726.083 144H707.548V14H781.815V23.3311H791.083V32.5986H800.351V79H791.083V88.3311H781.815V97.5986H726.083V144ZM726.083 79H772.548V69.7324H781.815V41.8662H772.548V32.5986H726.083V79ZM902.548 144H819.013V14H837.548V125.465H902.548V144ZM935.048 144H916.513V116.197H925.78V88.3311H935.048V60.4648H944.315V32.5986H953.646V14H981.513V32.5986H990.78V60.4648H1000.05V88.3311H1009.32V116.197H1018.65V144H1000.05V116.197H935.048V144ZM944.315 97.5986H990.78V88.3311H981.513V60.4648H972.182V41.8662H962.914V60.4648H953.646V88.3311H944.315V97.5986ZM1116.08 144H1051.08V134.732H1041.82V125.465H1032.55V106.866H1051.08V116.197H1060.35V125.465H1106.82V116.197H1116.08V97.5986H1106.82V88.3311H1060.35V79H1041.82V69.7324H1032.55V32.5986H1041.82V23.3311H1051.08V14H1116.08V23.3311H1125.35V32.5986H1134.68V51.1973H1116.08V41.8662H1106.82V32.5986H1060.35V41.8662H1051.08V60.4648H1060.35V69.7324H1106.82V79H1125.35V88.3311H1134.68V125.465H1125.35V134.732H1116.08V144ZM1171.69 144H1153.15V14H1171.69V65.0986H1236.69V14H1255.29V144H1236.69V83.6973H1171.69V144Z" fill="white"/>
</svg>
