<svg xmlns="http://www.w3.org/2000/svg" xmlns:xlink="http://www.w3.org/1999/xlink" width="1265" height="186" viewBox="0 0 1265 186" fill="none">
<rect width="160.929" height="144.5" fill="url(#pattern0_34_798)"/>
<path d="M215.731 144H197.196V116.197H206.464V88.3311H215.731V60.4648H224.999V32.5986H234.33V14H262.196V32.5986H271.464V60.4648H280.731V88.3311H289.999V116.197H299.33V144H280.731V116.197H215.731V144ZM224.999 97.5986H271.464V88.3311H262.196V60.4648H252.865V41.8662H243.598V60.4648H234.33V88.3311H224.999V97.5986ZM336.337 144H317.802V14H410.604V32.5986H336.337V69.7324H401.337V88.3311H336.337V144ZM447.802 144H429.267V14H512.802V23.3311H522.069V32.5986H531.4V74.3662H522.069V83.6973H512.802V92.9648H522.069V102.232H531.4V144H512.802V111.5H503.534V102.232H494.267V92.9648H447.802V144ZM447.802 74.3662H503.534V65.0986H512.802V41.8662H503.534V32.5986H447.802V74.3662ZM568.407 144H549.872V14H568.407V144ZM670.478 144H605.478V134.732H596.21V125.465H586.942V106.866H605.478V116.197H614.745V125.465H661.21V116.197H670.478V97.5986H661.21V88.3311H614.745V79H596.21V69.7324H586.942V32.5986H596.21V23.3311H605.478V14H670.478V23.3311H679.745V32.5986H689.076V51.1973H670.478V41.8662H661.21V32.5986H614.745V41.8662H605.478V60.4648H614.745V69.7324H661.21V79H679.745V88.3311H689.076V125.465H679.745V134.732H670.478V144ZM726.083 144H707.548V14H781.815V23.3311H791.083V32.5986H800.351V79H791.083V88.3311H781.815V97.5986H726.083V144ZM726.083 79H772.548V69.7324H781.815V41.8662H772.548V32.5986H726.083V79ZM902.548 144H819.013V14H837.548V125.465H902.548V144ZM935.048 144H916.513V116.197H925.78V88.3311H935.048V60.4648H944.315V32.5986H953.646V14H981.513V32.5986H990.78V60.4648H1000.05V88.3311H1009.32V116.197H1018.65V144H1000.05V116.197H935.048V144ZM944.315 97.5986H990.78V88.3311H981.513V60.4648H972.182V41.8662H962.914V60.4648H953.646V88.3311H944.315V97.5986ZM1116.08 144H1051.08V134.732H1041.82V125.465H1032.55V106.866H1051.08V116.197H1060.35V125.465H1106.82V116.197H1116.08V97.5986H1106.82V88.3311H1060.35V79H1041.82V69.7324H1032.55V32.5986H1041.82V23.3311H1051.08V14H1116.08V23.3311H1125.35V32.5986H1134.68V51.1973H1116.08V41.8662H1106.82V32.5986H1060.35V41.8662H1051.08V60.4648H1060.35V69.7324H1106.82V79H1125.35V88.3311H1134.68V125.465H1125.35V134.732H1116.08V144ZM1171.69 144H1153.15V14H1171.69V65.0986H1236.69V14H1255.29V144H1236.69V83.6973H1171.69V144Z" fill="white"/>
<defs>


</defs>
</svg>